:SAMPLES-PER-SECOND 24
:FULLY-SPECIFIED
:DEGREES
419
root  3.89321 39.8783 23.7258 8.68579 -77.7123 2.10773
RightUpLeg  -17.1144 12.6083 -12.722
RightLeg  13.8474 0.00545143 -1.15153
RightFoot  -10.6599 -0.135455 10.5387
RightToes  -2.08645e-008 3.77894e-005 6.81332e-007
Spine  6.49134 -2.19793 -0.853304
Spine1  -1.02957 -3.23927 5.79547
HEad  -47.9829 51.7902 -33.8484
LeftShoulder1  6.78164 -12.4375 -36.4889
LeftArm  -3.21437 13.3618 -24.4441
LeftForeArm  158.191 -71.4387 -149.566
LeftHand  -0.465974 -1.68968 7.81819
RightShoulder  4.07174 6.99671 32.8896
RightArm  -2.95463 -48.4829 21.6349
RightForeArm  24.7163 11.3815 9.80717
RightHand  -1.03609 9.79754 -8.28511
LeftUpLeg  -13.2574 6.00799 1.59863
LeftLeg  23.7591 -1.35471 -0.309368
LeftFoot  -10.3107 0.176878 -12.7849
LeftToes  1.24767e-006 1.47042e-008 1.32732e-009
420
root  3.90588 39.4802 23.4551 8.75244 -78.0126 1.12744
RightUpLeg  -18.29 12.6647 -11.9506
RightLeg  16.6208 -1.19627 -0.833988
RightFoot  -9.2037 -0.223379 8.24382
RightToes  -2.08645e-008 3.77894e-005 6.81332e-007
Spine  10.9424 -2.19792 0.283361
Spine1  -2.65477 -3.11844 5.86551
HEad  -50.169 51.5239 -34.9147
LeftShoulder1  6.33021 -12.0184 -34.7661
LeftArm  -3.10922 9.38713 -22.5868
LeftForeArm  157.173 -71.5934 -149.155
LeftHand  -0.491407 -1.63163 8.29826
RightShoulder  4.0029 7.04316 32.0621
RightArm  -5.1956 -48.7173 19.6841
RightForeArm  31.1869 8.95842 9.89994
RightHand  -1.09077 10.4432 -8.36805
LeftUpLeg  -15.7233 8.64324 3.22782
LeftLeg  31.1341 -5.86996 -3.49061
LeftFoot  -12.3086 -0.0636183 -15.9507
LeftToes  1.24767e-006 1.47042e-008 1.32732e-009
421
root  3.95728 38.9545 23.2991 11.9951 -77.8349 -2.99103
RightUpLeg  -19.3694 12.5282 -10.1556
RightLeg  20.8384 -2.8046 -1.37308
RightFoot  -12.0045 -0.0622893 4.31471
RightToes  -2.08645e-008 3.77894e-005 6.81332e-007
Spine  14.1155 -2.50106 3.10174
Spine1  -2.51054 -2.92635 4.19807
HEad  -53.5987 50.5695 -35.8452
LeftShoulder1  5.98105 -11.7387 -33.2431
LeftArm  -3.50495 4.06228 -20.5752
LeftForeArm  156.944 -72.251 -147.963
LeftHand  -0.560094 -1.85277 9.15835
RightShoulder  3.89525 6.93592 31.4166
RightArm  -9.13919 -47.0643 19.1147
RightForeArm  36.2353 5.18964 9.39738
RightHand  -1.20405 10.6329 -9.08724
LeftUpLeg  -19.2538 10.2263 5.49771
LeftLeg  39.8755 -8.35905 -7.056
LeftFoot  -13.8005 -0.329056 -19.0712
LeftToes  1.24767e-006 1.47042e-008 1.32732e-009
422
root  3.97295 38.6048 23.3621 14.1824 -77.4926 -5.11819
RightUpLeg  -21.2348 10.6286 -9.43962
RightLeg  24.5894 -1.76824 -1.09592
RightFoot  -14.1196 -0.0160489 3.21068
RightToes  -2.08645e-008 3.77894e-005 6.81332e-007
Spine  15.3681 -2.90088 4.96391
Spine1  -1.51356 -2.91973 2.7819
HEad  -56.6466 49.7922 -36.8662
LeftShoulder1  6.04543 -11.867 -33.3319
LeftArm  -3.87807 1.10747 -19.6015
LeftForeArm  154.62 -73.9719 -144.062
LeftHand  -0.621221 -2.15121 9.76008
RightShoulder  3.83624 6.8482 31.1608
RightArm  -12.8315 -42.8965 18.8623
RightForeArm  38.5527 1.70598 7.90788
RightHand  -1.37643 9.67074 -10.9528
LeftUpLeg  -23.0637 11.7066 6.45723
LeftLeg  45.6585 -5.78561 -5.85108
LeftFoot  -13.7235 -0.322844 -19.3513
LeftToes  1.24767e-006 1.47042e-008 1.32732e-009
423
root  3.90311 38.6107 23.5713 11.0339 -76.405 -1.44611
RightUpLeg  -21.4888 8.55828 -10.4597
RightLeg  25.0614 -0.874089 -0.667447
RightFoot  -14.0248 0.00979244 4.47657
RightToes  -2.08645e-008 3.77894e-005 6.81332e-007
Spine  15.9969 -3.05688 3.77582
Spine1  -1.50566 -3.3023 3.45501
HEad  -56.708 49.9827 -36.3911
LeftShoulder1  6.37357 -12.2262 -34.507
LeftArm  -2.21238 2.27905 -20.2936
LeftForeArm  148.068 -76.0651 -137.221
LeftHand  -0.619625 -2.05934 9.84915
RightShoulder  3.84239 6.87979 31.1063
RightArm  -13.8148 -39.0885 17.7465
RightForeArm  37.526 2.263 7.72287
RightHand  -1.50102 8.56829 -12.7858
LeftUpLeg  -25.5896 13.5835 5.48878
LeftLeg  46.2372 0.649667 1.15534
LeftFoot  -12.8236 -0.134416 -16.2023
LeftToes  1.24767e-006 1.47042e-008 1.32732e-009
424
root  3.77239 38.8909 23.9105 8.29443 -73.8969 2.06885
RightUpLeg  -19.5103 8.36197 -11.6804
RightLeg  21.9879 -3.36509 -1.68796
RightFoot  -12.9091 -0.0184004 5.02932
RightToes  -2.08645e-008 3.77894e-005 6.81332e-007
Spine  16.1389 -3.08572 2.57467
Spine1  -2.59722 -3.58682 4.46621
HEad  -54.562 50.2357 -34.5105
LeftShoulder1  6.60804 -12.4782 -35.3217
LeftArm  1.33979 6.12013 -21.8612
LeftForeArm  143.603 -77.3169 -131.806
LeftHand  -0.60406 -2.36517 9.25459
RightShoulder  3.83752 6.85653 31.143
RightArm  -10.8785 -37.4495 16.8169
RightForeArm  32.4428 7.13234 9.14077
RightHand  -1.42626 8.27256 -12.4219
LeftUpLeg  -27.1091 15.9154 4.36889
LeftLeg  42.69 6.70942 6.9903
LeftFoot  -12.2246 -0.0305902 -13.4433
LeftToes  1.24767e-006 1.47042e-008 1.32732e-009
425
root  3.61627 39.1682 24.4275 9.12793 -70.5565 2.36432
RightUpLeg  -17.2895 8.22674 -12.2716
RightLeg  18.1845 -6.59347 -2.69178
RightFoot  -11.4549 -0.0734099 6.05346
RightToes  -2.08645e-008 3.77894e-005 6.81332e-007
Spine  15.0405 -2.8742 3.14887
Spine1  -3.32885 -3.34406 4.58366
HEad  -52.6431 49.2333 -33.0984
LeftShoulder1  6.7812 -12.6816 -35.8584
LeftArm  5.23736 11.0394 -22.6605
LeftForeArm  146.192 -77.5733 -131.389
LeftHand  -0.53248 -3.03416 7.57705
RightShoulder  3.81715 6.78019 31.2217
RightArm  -2.71025 -35.8125 17.4151
RightForeArm  23.7285 13.2824 8.69656
RightHand  -1.36447 8.37844 -11.8152
LeftUpLeg  -28.7227 18.0592 4.01886
LeftLeg  37.1515 8.46532 7.2285
LeftFoot  -11.5463 0.045487 -13.9645
LeftToes  1.24767e-006 1.47042e-008 1.32732e-009
426
root  3.48902 39.2458 25.0669 10.8804 -67.2908 1.23438
RightUpLeg  -15.15 4.72586 -11.9157
RightLeg  15.5306 -6.07115 -2.92921
RightFoot  -10.5968 -0.124801 8.05544
RightToes  -2.08645e-008 3.77894e-005 6.81332e-007
Spine  13.7347 -2.0552 4.18085
Spine1  -3.39602 -2.50058 4.56309
HEad  -51.1832 46.9999 -31.9356
LeftShoulder1  7.04901 -12.9893 -36.677
LeftArm  8.97486 16.259 -21.5391
LeftForeArm  148.025 -77.516 -132.087
LeftHand  -0.356956 -3.44484 4.93726
RightShoulder  3.8857 6.86287 31.5903
RightArm  5.22286 -32.3014 18.6457
RightForeArm  16.121 17.9563 6.67944
RightHand  -1.5469 7.94367 -13.7439
LeftUpLeg  -30.4068 19.0889 4.88026
LeftLeg  31.9743 6.78958 4.91731
LeftFoot  -9.30837 0.322332 -14.8813
LeftToes  1.24767e-006 1.47042e-008 1.32732e-009
427
root  3.437 39.1142 25.7042 12.0225 -64.0007 -0.251617
RightUpLeg  -12.9346 1.33219 -11.3598
RightLeg  14.7174 -5.84447 -3.1562
RightFoot  -10.8661 -0.108817 8.39989
RightToes  -2.08645e-008 3.77894e-005 6.81332e-007
Spine  13.4636 -0.845146 5.07827
Spine1  -3.54981 -1.21698 4.20277
HEad  -50.209 44.075 -30.3836
LeftShoulder1  7.15704 -13.1431 -36.9239
LeftArm  12.0065 21.0055 -19.5593
LeftForeArm  139.312 -78.3929 -125.842
LeftHand  -0.208057 -3.86716 2.87631
RightShoulder  4.04865 7.05605 32.4516
RightArm  10.6195 -26.7827 20.2737
RightForeArm  9.71008 22.0138 4.78071
RightHand  -1.72234 6.81763 -16.5904
LeftUpLeg  -32.015 20.0391 6.57251
LeftLeg  27.3098 6.05889 3.72821
LeftFoot  -6.95734 0.571408 -13.7906
LeftToes  1.24767e-006 1.47042e-008 1.32732e-009
428
root  3.44042 38.8083 26.3707 12.6887 -60.348 -1.86057
RightUpLeg  -11.1152 -0.135401 -11.1405
RightLeg  16.079 -7.58733 -3.35593
RightFoot  -12.532 0.0104324 8.92022
RightToes  -2.08645e-008 3.77894e-005 6.81332e-007
Spine  13.6251 0.228077 6.64722
Spine1  -3.43344 0.216204 2.37844
HEad  -50.1779 40.8422 -29.3584
LeftShoulder1  7.12953 -13.1537 -36.737
LeftArm  12.3521 24.6246 -18.3413
LeftForeArm  107.527 -80.3227 -96.11
LeftHand  -0.285399 -3.8557 3.8543
RightShoulder  4.16488 7.16223 33.1602
RightArm  8.57328 -18.5079 23.7424
RightForeArm  11.0649 25.4544 4.83253
RightHand  -1.87743 6.27549 -18.8221
LeftUpLeg  -33.7196 22.6345 7.39639
LeftLeg  21.7437 7.71821 3.75814
LeftFoot  -6.0467 0.629478 -12.7807
LeftToes  1.24767e-006 1.47042e-008 1.32732e-009
